<svg width="22" height="22" viewBox="0 0 22 22" fill="none" xmlns="http://www.w3.org/2000/svg">
<path d="M10.427 1.633C10.747 0.789 11.958 0.789 12.279 1.633L14.349 7.367C14.4212 7.55379 14.5484 7.71428 14.7137 7.82729C14.879 7.94031 15.0747 8.00053 15.275 8H20.362C21.302 8 21.712 9.17 20.973 9.743L17.353 13C17.1908 13.1247 17.0723 13.2975 17.0145 13.4937C16.9566 13.6898 16.9624 13.8993 17.031 14.092L18.353 19.695C18.675 20.595 17.633 21.368 16.845 20.814L11.928 17.694C11.7596 17.5757 11.5588 17.5122 11.353 17.5122C11.1472 17.5122 10.9464 17.5757 10.778 17.694L5.86098 20.814C5.07398 21.368 4.03098 20.594 4.35298 19.695L5.67498 14.092C5.74356 13.8993 5.74934 13.6898 5.69149 13.4937C5.63364 13.2975 5.51514 13.1247 5.35298 13L1.73298 9.743C0.992982 9.17 1.40498 8 2.34298 8H7.42998C7.63027 8.00067 7.82605 7.9405 7.9914 7.82747C8.15675 7.71444 8.28389 7.55387 8.35598 7.367L10.426 1.633H10.427Z" fill="#FFD057" stroke="#FFD057" stroke-linecap="round" stroke-linejoin="round"/>
</svg>
